<svg xmlns="http://www.w3.org/2000/svg" width="160" height="160" viewBox="0 0 160 160">
  <g id="Group_2369" data-name="Group 2369" transform="translate(-11 -148)">
    <rect id="Rectangle_18861" data-name="Rectangle 18861" width="160" height="160" transform="translate(11 148)" fill="#08648d" opacity="0"/>
    <g id="Group_2327" data-name="Group 2327" transform="translate(1254.441 -4502.803)">
      <path id="Path_1097" data-name="Path 1097" d="M-1161.945,4791.527h-5.864q-21.778,0-43.556,0a7.889,7.889,0,0,1-6.554-3.238,7.63,7.63,0,0,1-1.493-4.617c-.058-2.121-.012-4.246-.013-6.368q0-38.707-.006-77.413,0-9.312.012-18.622a7.908,7.908,0,0,1,8.265-8.242c3.709,0,7.418-.028,11.127.01.854.009,1.132-.291,1.082-1.1-.049-.791-.031-1.585-.018-2.377.029-1.7.762-2.433,2.454-2.437,4.121-.009,8.242-.031,12.363.017a1.154,1.154,0,0,0,1.37-1.129,11.108,11.108,0,0,1,9.5-9.1,11.16,11.16,0,0,1,11.925,6.751,11.776,11.776,0,0,1,.727,2.548c.137.694.444.921,1.15.916,4.153-.028,8.306-.01,12.458-.012,1.785,0,2.527.734,2.546,2.538a18.755,18.755,0,0,1,0,2.186c-.111,1.024.373,1.206,1.266,1.2q5.515-.055,11.031-.012a7.825,7.825,0,0,1,7.385,4.462,8.945,8.945,0,0,1,.786,4.252q-.021,25.3-.012,50.594,0,6.409,0,12.818c0,1.383-.433,1.686-1.726,1.19a22.262,22.262,0,0,1-2.27-.937,1.178,1.178,0,0,1-.579-.833c-.021-2.845.026-5.689.036-8.534,0-.663-.088-1.325-.089-1.988q-.013-26.344-.016-52.687c0-2.394-1.244-3.636-3.637-3.641-3.677-.007-7.355.031-11.031-.021-.95-.014-1.221.309-1.152,1.2a18.171,18.171,0,0,1-.006,2.375,2.024,2.024,0,0,1-2.088,2.017c-1.236.026-2.472.009-3.709.009h-45.744c-2.34,0-2.921-.577-2.946-2.926-.005-.412-.009-.824-.006-1.236.009-1.415.01-1.418-1.353-1.417q-5.421,0-10.842.009c-2.334.005-3.618,1.312-3.617,3.671q0,24.679,0,49.358c0,2.75-.1,5.5-.1,8.252q.036,21.915.1,43.83c.007,2.873,1.171,4.041,4.034,4.041q22.49,0,44.981,0c1.431,0,1.336.031,1.817,1.366a9.185,9.185,0,0,0,1.448,2.28c.192.253.61.336.924.5Zm-9.737-131.415a8.038,8.038,0,0,0-8.027,7.851,8.037,8.037,0,0,0,8.02,8.144,8.032,8.032,0,0,0,7.973-7.995A8.041,8.041,0,0,0-1171.682,4660.112Z" transform="translate(0)" fill="#0e5879"/>
      <path id="Path_1098" data-name="Path 1098" d="M-1022.659,4907c0,1.362.04,2.727-.012,4.087a1.62,1.62,0,0,1-1.81,1.749c-.76.026-1.521,0-2.281.006a2.25,2.25,0,0,0-2.229,1.466c-.6,1.428-1.226,2.849-1.792,4.291a2.217,2.217,0,0,0,.544,2.454c.543.576,1.132,1.111,1.661,1.7a1.631,1.631,0,0,1-.027,2.524q-2.838,2.876-5.743,5.686a1.626,1.626,0,0,1-2.458-.036c-.563-.51-1.076-1.076-1.623-1.6a2.376,2.376,0,0,0-2.868-.517q-1.788.767-3.6,1.475a2.392,2.392,0,0,0-1.837,2.647c-.013.666.014,1.335-.041,2a1.756,1.756,0,0,1-1.958,1.847c-2.568.007-5.135.005-7.7-.02a1.812,1.812,0,0,1-1.975-2.028c0-.761,0-1.522-.012-2.282a2.218,2.218,0,0,0-1.494-2.113c-1.311-.553-2.628-1.093-3.943-1.636a2.414,2.414,0,0,0-2.878.521c-.511.52-1.014,1.049-1.552,1.54a1.74,1.74,0,0,1-2.554.007q-2.874-2.829-5.677-5.732a1.644,1.644,0,0,1,.137-2.592c.539-.532,1.129-1.014,1.676-1.539a2.27,2.27,0,0,0,.515-2.632c-.578-1.469-1.223-2.913-1.882-4.348a2.307,2.307,0,0,0-2.137-1.341c-.791-.039-1.586.01-2.376-.026a1.641,1.641,0,0,1-1.746-1.734q-.039-4.041.027-8.083a1.661,1.661,0,0,1,1.838-1.744c.76-.023,1.522.016,2.282-.011a2.413,2.413,0,0,0,2.355-1.729c.454-1.18.931-2.354,1.462-3.5a2.4,2.4,0,0,0-.486-3.185c-.488-.5-.994-.979-1.467-1.491a1.707,1.707,0,0,1,0-2.537q2.809-2.836,5.661-5.63a1.733,1.733,0,0,1,2.613-.006c.58.539,1.116,1.124,1.692,1.667a2.187,2.187,0,0,0,2.533.487c1.4-.588,2.817-1.137,4.219-1.722a2.33,2.33,0,0,0,1.463-2.247c.029-.728-.008-1.458.012-2.187.037-1.325.785-1.866,2.1-1.824,2.459.08,4.924.083,7.384.023,1.29-.031,2.017.452,2.094,1.722.04.663.015,1.331-.009,2a2.553,2.553,0,0,0,1.855,2.751c1.209.466,2.4.975,3.586,1.5a2.363,2.363,0,0,0,2.809-.392c.586-.532,1.127-1.113,1.7-1.655a1.691,1.691,0,0,1,2.538-.024q2.827,2.814,5.6,5.684a1.761,1.761,0,0,1-.029,2.687c-.5.53-1.053,1-1.56,1.526a2.241,2.241,0,0,0-.558,2.607c.584,1.4,1.145,2.813,1.727,4.215a2.491,2.491,0,0,0,2.62,1.491c.6,0,1.206-.035,1.8,0,1.348.09,1.879.64,1.9,1.983.023,1.267,0,2.535,0,3.8Zm-29.839,16.705a16.843,16.843,0,0,0,16.885-16.651,16.9,16.9,0,0,0-16.844-17.013,16.848,16.848,0,0,0-16.822,16.711A16.658,16.658,0,0,0-1052.5,4923.705Z" transform="translate(-83.936 -131.473)" fill="none" stroke="#0e5879" stroke-width="4"/>
      <path id="Path_1099" data-name="Path 1099" d="M-1087.5,4820.317q8.891,0,17.782,0c1.273,0,1.933.455,2.176,1.414a2,2,0,0,1-1.824,2.557c-.41.032-.824.014-1.236.014q-17.355,0-34.709-.007c-1.682,0-2.667-1.046-2.337-2.444a1.8,1.8,0,0,1,1.985-1.531c1.933-.023,3.867-.01,5.8-.01q6.181,0,12.362,0Z" transform="translate(-69.223 -96.305)" fill="#0e5879"/>
      <path id="Path_1100" data-name="Path 1100" d="M-1087.7,4764.554q-4.681,0-9.362,0c-2.778,0-5.556.03-8.334.014-1.655-.01-2.661-1.222-2.236-2.623a1.716,1.716,0,0,1,1.834-1.332c2.91.027,5.819.065,8.729.048,3.125-.018,6.25-.13,9.374-.133,2.556,0,5.112.145,7.668.143,3.473,0,6.946-.091,10.419-.131a1.914,1.914,0,0,1,2,1.3,1.763,1.763,0,0,1-.523,2.152,3.023,3.023,0,0,1-1.652.56c-4.68.026-9.36-.011-14.04-.027-1.292,0-2.584,0-3.877,0Z" transform="translate(-69.212 -64.266)" fill="#0e5879"/>
      <path id="Path_1102" data-name="Path 1102" d="M-1162.753,4811.927a6.5,6.5,0,0,1-.7,1.506c-4.127,4.97-8.289,9.912-12.43,14.87-.375.45-.679.452-1.1.073-2.938-2.653-5.9-5.281-8.824-7.945a2.068,2.068,0,0,1-.212-2.984,2.076,2.076,0,0,1,2.983-.179q2.741,2.349,5.4,4.79c.608.559.948.551,1.494-.111,3-3.639,6.057-7.237,9.1-10.845a5.985,5.985,0,0,1,.784-.824,2.02,2.02,0,0,1,2.238-.235A2.246,2.246,0,0,1-1162.753,4811.927Z" transform="translate(-20.374 -89.8)" fill="#0e5879"/>
      <path id="Path_1103" data-name="Path 1103" d="M-1162.665,4752.157a11.609,11.609,0,0,1-.984,1.746c-4.034,4.84-8.1,9.65-12.137,14.491-.453.543-.755.6-1.285.124-2.865-2.593-5.766-5.146-8.627-7.742a2.089,2.089,0,0,1-.3-3.115,2.126,2.126,0,0,1,3.2-.009c1.736,1.526,3.479,3.045,5.164,4.625.617.579.956.556,1.494-.1,3.065-3.711,6.167-7.392,9.264-11.077,1.025-1.219,2.249-1.492,3.2-.616A7.109,7.109,0,0,1-1162.665,4752.157Z" transform="translate(-20.369 -57.727)" fill="#0e5879"/>
      <path id="Path_1106" data-name="Path 1106" d="M-1096.639,4838.722c2.913,0,5.827-.016,8.74.007a2.011,2.011,0,0,1,2.251,1.834,1.9,1.9,0,0,1-1.516,2.1,4.583,4.583,0,0,1-1.034.105q-8.217.019-16.435.02a8.786,8.786,0,0,1-1.512-.11,1.893,1.893,0,0,1-1.621-1.83,1.958,1.958,0,0,1,1.456-1.973,4.813,4.813,0,0,1,1.216-.156c2.818-.013,5.637-.007,8.455-.007Z" transform="translate(-69.188 -107.705)" fill="#0e5879"/>
      <path id="Path_1107" data-name="Path 1107" d="M-1096.767,4783.1q-4.37,0-8.74,0a2.007,2.007,0,0,1-2.245-1.919,2.023,2.023,0,0,1,2.229-2.057q8.835-.018,17.67,0a1.98,1.98,0,0,1,2.221,2.038c-.019,1.205-.809,1.93-2.205,1.939-2.977.019-5.953.005-8.93.005Z" transform="translate(-69.2 -75.78)" fill="#0e5879"/>
    </g>
  </g>
</svg>
