<svg xmlns="http://www.w3.org/2000/svg" width="40" height="40" viewBox="0 0 40 40">
  <g id="Group_2428" data-name="Group 2428" transform="translate(5936 -1397)">
    <rect id="Rectangle_18876" data-name="Rectangle 18876" width="40" height="40" transform="translate(-5936 1397)" fill="#08648d" opacity="0"/>
    <g id="Group_2425" data-name="Group 2425" transform="translate(-6387.39 1254.153)">
      <path id="Path_1144" data-name="Path 1144" d="M486.065,161.82c0-.11-.013-.221-.02-.324h-1.4V162c0,2.174,0,13.185,0,15.359,0,.718-.263.938-1.121.938h-24.27c-.854,0-1.126-.226-1.127-.937q0-4.206,0-8.413,0-10.349,0-20.7c0-.6.3-.851,1.011-.851q8.015,0,16.029-.007c.322,0,.408.08.406.345-.012,2.251-.007,4.5-.007,6.754,0,.689.312.95,1.134.95h7.94v6.045h1.4a1.215,1.215,0,0,0,.023-.161c0-2.455,0-4.91-.005-7.365a.491.491,0,0,0-.17-.327q-4.128-3.6-8.265-7.2a.911.911,0,0,0-.661-.235q-9.3.01-18.6,0c-1.092,0-1.646.467-1.646,1.379q0,6.36,0,12.721,0,8.922,0,17.845c0,.857.57,1.333,1.594,1.333h26.182c1,0,1.574-.484,1.574-1.319C486.067,175.665,486.066,164.324,486.065,161.82Zm-9.258-13.848c0-.093.01-.186.021-.373l7.827,6.71-.057.1h-7.249c-.5,0-.544-.037-.544-.443Q476.807,150.969,476.808,147.972Z" transform="translate(0 0)" fill="#d9df90"/>
      <path id="Path_1145" data-name="Path 1145" d="M484.149,199.266a2.106,2.106,0,0,0,.14.767.63.63,0,0,0,.844.405c.331-.145.524-.535.525-1.114q0-1.943,0-3.886c1.276,0,2.551,0,3.827-.007a2.109,2.109,0,0,0,.767-.14.629.629,0,0,0,.405-.844c-.145-.331-.534-.524-1.114-.525q-1.942,0-3.884,0,0-.562,0-1.125c0-.944.009-1.888,0-2.832-.01-.749-.408-1.2-.909-1.073-.381.1-.6.489-.606,1.111,0,1.306,0,2.612,0,3.918h-1.123c-.944,0-1.888-.01-2.832,0-.749.01-1.2.408-1.072.909.1.381.489.6,1.111.607,1.307,0,2.613,0,3.92,0C484.141,196.716,484.139,197.991,484.149,199.266Z" transform="translate(-13.509 -30.314)" fill="#d9df90"/>
    </g>
  </g>
</svg>
