<svg xmlns="http://www.w3.org/2000/svg" width="40" height="40" viewBox="0 0 40 40">
  <g id="Group_2384" data-name="Group 2384" transform="translate(-141 -22)">
    <rect id="Rectangle_18856" data-name="Rectangle 18856" width="40" height="40" transform="translate(141 22)" fill="#08648d" opacity="0"/>
    <path id="Path_1133" data-name="Path 1133" d="M-1087.5,3352.4a.689.689,0,0,1-1.062.678c-1.241-.623-2.476-1.259-3.714-1.89-1.531-.78-3.065-1.556-4.593-2.343a.5.5,0,0,0-.513,0q-4.034,2.08-8.076,4.143c-.092.047-.181.1-.274.141a.674.674,0,0,1-1.005-.715c.158-1.163.35-2.321.531-3.481.309-1.982.624-3.965.921-5.95a.511.511,0,0,0-.166-.356q-3.227-3.245-6.465-6.477c-.051-.051-.1-.1-.153-.153a.683.683,0,0,1-.2-.76.688.688,0,0,1,.6-.461c1.383-.218,2.764-.445,4.146-.667,1.707-.274,3.414-.549,5.123-.814a.472.472,0,0,0,.372-.315q2.06-4.079,4.128-8.155c.028-.055.055-.111.083-.166a.692.692,0,0,1,.646-.448.694.694,0,0,1,.652.436q.677,1.336,1.361,2.668c.959,1.879,1.923,3.756,2.871,5.641a.55.55,0,0,0,.459.334q4.561.709,9.122,1.427a.742.742,0,0,1,.683.492.761.761,0,0,1-.259.8q-3.263,3.274-6.522,6.551a.559.559,0,0,0-.179.544q.733,4.542,1.456,9.086C-1087.512,3352.275-1087.5,3352.357-1087.5,3352.4Z" transform="translate(1258.561 -3297.21)" fill="none" stroke="#d9df90" stroke-width="1.3"/>
  </g>
</svg>
