<svg xmlns="http://www.w3.org/2000/svg" width="40" height="40" viewBox="0 0 40 40">
  <g id="Group_2388" data-name="Group 2388" transform="translate(-381 -22)">
    <rect id="Rectangle_18856" data-name="Rectangle 18856" width="40" height="40" transform="translate(381 22)" fill="#08648d" opacity="0"/>
    <path id="Path_1134" data-name="Path 1134" d="M4477.774,417.078c-1.734-1.737-3.464-3.478-5.21-5.2-.488-.484-1.022-.922-1.521-1.367a10.218,10.218,0,1,0-.981.965c.184.222.326.424.5.6q3.048,3.058,6.1,6.108c.517.516.962.589,1.326.228S4478.287,417.591,4477.774,417.078Zm-14.393-4.325a8.965,8.965,0,1,1,8.965-8.965A8.965,8.965,0,0,1,4463.381,412.753Z" transform="translate(-4065.219 -363.629)" fill="#d9df90" stroke="#d9df90" stroke-width="0.2"/>
  </g>
</svg>
