<svg xmlns="http://www.w3.org/2000/svg" width="40" height="40" viewBox="0 0 40 40">
  <g id="Group_2398" data-name="Group 2398" transform="translate(5604 -1237)">
    <rect id="Rectangle_18866" data-name="Rectangle 18866" width="40" height="40" transform="translate(-5604 1237)" fill="#08648d" opacity="0"/>
    <g id="Group_2392" data-name="Group 2392" transform="translate(-5598.586 1243)">
      <path id="Path_1018" data-name="Path 1018" d="M-4017.235,3433.688q-1.495,0-2.99,0a2.966,2.966,0,0,1-3.179-3.2q-.005-9.983,0-19.966a2.957,2.957,0,0,1,3.186-3.185h19.967a2.95,2.95,0,0,1,3.2,3.215q0,2.856,0,5.712c0,.331-.083.887-.634.887h-.022c-.544-.014-.626-.553-.626-.874q0-1.384,0-2.769,0-1.5,0-3a1.671,1.671,0,0,0-1.875-1.891l-9.813,0-10.261,0a1.646,1.646,0,0,0-1.831,1.779c-.008,3.474-.007,7.005,0,10.421v3.192a1.453,1.453,0,0,0,.013.169c0,.037.009.081.015.138l.042.423.315-.286.172-.154c.1-.093.189-.168.27-.249l1.588-1.584q1.057-1.055,2.117-2.11a1.015,1.015,0,0,1,.644-.378,1.007,1.007,0,0,1,.641.377c.993.991,1.983,1.984,3.016,3.019l1.471,1.474.146-.213c.046-.068.088-.136.129-.2a1.752,1.752,0,0,1,.228-.319q3.292-3.306,6.594-6.6l.876-.876c.324-.324.538-.462.717-.462s.393.139.719.464l.427.425c.488.485.976.97,1.457,1.462a.864.864,0,0,1,.281.6.583.583,0,0,1-.193.416.6.6,0,0,1-.414.183.839.839,0,0,1-.566-.28c-.349-.343-.687-.691-1.044-1.061l-.48-.494-.146-.15-.315.294c-.107.1-.2.187-.294.279l-7.512,7.512c-.323.323-.538.461-.719.461s-.4-.138-.72-.461c-.988-.987-1.975-1.976-2.98-2.981l-1.327-1.329-.926.935c-.618.624-1.227,1.238-1.836,1.851q-.318.319-.638.634c-.463.458-.942.932-1.4,1.417a1.354,1.354,0,0,0-.356.824c-.031,1.146-.021,2.328-.011,3.37a1.679,1.679,0,0,0,1.866,1.86q1.588.005,3.176,0l4.4,0a2.273,2.273,0,0,1,.344.02.572.572,0,0,1,.519.569.557.557,0,0,1-.389.619,1.632,1.632,0,0,1-.552.073Q-4014.994,3433.687-4017.235,3433.688Z" transform="translate(4023.407 -3407.33)" fill="#bcc733"/>
      <path id="Path_1019" data-name="Path 1019" d="M-3958.017,3478.049c-.2,0-.4,0-.6-.005-.489-.01-.735-.25-.733-.714.006-1.218.037-2.279.094-3.243a.978.978,0,0,1,.293-.545c3.578-3.575,7.746-7.735,11.922-11.862a2.833,2.833,0,0,1,2-.824,2.925,2.925,0,0,1,2.076.865,2.937,2.937,0,0,1,.872,2.037,2.794,2.794,0,0,1-.817,2.04c-3.436,3.448-7.114,7.106-11.924,11.859a1.287,1.287,0,0,1-.719.292,5.418,5.418,0,0,1-.6.029c-.151,0-.3,0-.454-.008s-.309-.007-.463-.007h-.213v.086Zm1.137-1.355c.186,0,.369,0,.551.012l.083,0a1.46,1.46,0,0,0,1.1-.512c.81-.833,1.65-1.666,2.464-2.471l.931-.923,2.143-2.132q2.789-2.773,5.572-5.553a1.947,1.947,0,0,0,.611-1.379,1.553,1.553,0,0,0-.478-1.11,1.535,1.535,0,0,0-1.084-.448,1.952,1.952,0,0,0-1.356.614c-3.728,3.7-7.546,7.5-11.349,11.3a.967.967,0,0,0-.292.587c-.02.429-.017.852-.014,1.3,0,.168,0,.338,0,.511v.214h.214c.16,0,.315,0,.469,0S-3957.023,3476.694-3956.88,3476.694Z" transform="translate(3973.031 -3449.422)" fill="#bcc733"/>
      <path id="Path_1020" data-name="Path 1020" d="M-3988.474,3434.538a2.914,2.914,0,0,1-2.069-.874,2.862,2.862,0,0,1-.839-2.04,2.94,2.94,0,0,1,2.942-2.905h.029a2.913,2.913,0,0,1,2.874,2.939,2.92,2.92,0,0,1-2.922,2.879Zm.01-4.531a1.621,1.621,0,0,0-1.166.489,1.594,1.594,0,0,0-.464,1.153,1.621,1.621,0,0,0,1.611,1.6h0a1.615,1.615,0,0,0,1.658-1.61,1.615,1.615,0,0,0-.469-1.152,1.638,1.638,0,0,0-1.168-.481Z" transform="translate(3998.223 -3424.15)" fill="#bcc733"/>
    </g>
  </g>
</svg>
