<svg xmlns="http://www.w3.org/2000/svg" width="40" height="40" viewBox="0 0 40 40">
  <g id="Group_2400" data-name="Group 2400" transform="translate(5494 -1237)">
    <rect id="Rectangle_18868" data-name="Rectangle 18868" width="40" height="40" transform="translate(-5494 1237)" fill="#08648d" opacity="0"/>
    <g id="Group_2394" data-name="Group 2394" transform="translate(-5490 1241)">
      <path id="Path_1025" data-name="Path 1025" d="M-3168.3,4258.505a16.26,16.26,0,0,1-10.053-3.415,16.246,16.246,0,0,1-5.833-8.963,16.31,16.31,0,0,1,6.863-17.6,16.462,16.462,0,0,1,7.75-2.665c.04,0,.079,0,.116,0,.3,0,.482.093.482.555q0,1.618,0,3.235s0,4.663,0,5.768c0,.46-.072.551-.513.644a6.126,6.126,0,0,0-4.975,5.148,6.131,6.131,0,0,0,1.076,4.557,6.148,6.148,0,0,0,3.952,2.531,7.083,7.083,0,0,0,1.147.1h0a6.138,6.138,0,0,0,3.479-1.08.778.778,0,0,1,.4-.175c.107,0,.221.07.394.241q3.2,3.194,6.389,6.389a.621.621,0,0,1,.235.418.605.605,0,0,1-.263.392,16.067,16.067,0,0,1-8.772,3.829A17.3,17.3,0,0,1-3168.3,4258.505Zm-1.652-31.757a15.457,15.457,0,0,0-13.406,11.549,15.457,15.457,0,0,0,.779,10.061,15.5,15.5,0,0,0,6.836,7.453,15.422,15.422,0,0,0,7.413,1.9,15.167,15.167,0,0,0,9.756-3.468l.106-.091-6.034-6.034-.086.053a7.093,7.093,0,0,1-3.7,1.058,7.067,7.067,0,0,1-6.466-4.22,7.054,7.054,0,0,1,.169-6.055,6.922,6.922,0,0,1,4.677-3.668l.1-.022v-8.522Z" transform="translate(3184.68 -4225.854)" fill="#c69d16" stroke="#c69d16" stroke-width="0.3"/>
      <path id="Path_1026" data-name="Path 1026" d="M-3046.194,4241.476c-.4,0-.5-.083-.587-.468a6.168,6.168,0,0,0-5-4.972c-.366-.083-.44-.172-.44-.537q0-4.564,0-9.13c0-.431.185-.519.462-.519.033,0,.068,0,.1,0a16.308,16.308,0,0,1,8.2,2.951.6.6,0,0,1,.268.362.361.361,0,0,1-.07.278.355.355,0,0,1-.3.167.662.662,0,0,1-.367-.139,15.444,15.444,0,0,0-6.381-2.63c-.207-.036-.415-.061-.635-.087l-.331-.042-.145-.019v2.165c0,1.963,0,3.993-.006,5.989a.475.475,0,0,0,.406.533,6.943,6.943,0,0,1,4.894,4.875.463.463,0,0,0,.5.4c1.51,0,2.994-.005,4.757-.005h2.963c.063,0,.125-.005.212-.012l.163-.011.148-.009-.03-.146c-.054-.263-.1-.522-.155-.781-.111-.573-.215-1.114-.359-1.659a15.026,15.026,0,0,0-3.354-6.175.839.839,0,0,1-.275-.546.347.347,0,0,1,.138-.241.344.344,0,0,1,.228-.1.792.792,0,0,1,.517.333,16.22,16.22,0,0,1,4.079,9.591.566.566,0,0,1-.1.44.592.592,0,0,1-.444.137h-9.066Z" transform="translate(3069.264 -4225.85)" fill="#c69d16" stroke="#c69d16" stroke-width="0.3"/>
      <path id="Path_1027" data-name="Path 1027" d="M-3011.622,4367.927c-.118,0-.258-.085-.444-.271l-6.34-6.34c-.319-.32-.332-.43-.092-.79a6.293,6.293,0,0,0,.958-2.314c.091-.477.158-.531.653-.531h8.966a.662.662,0,0,1,.49.13.654.654,0,0,1,.088.5,16.266,16.266,0,0,1-3.828,9.3C-3011.357,4367.829-3011.5,4367.927-3011.622,4367.927Zm-4.813-9.436a.367.367,0,0,0-.394.269c-.173.492-.365.99-.551,1.471-.073.188-.146.378-.218.568l-.03.078,6,6,.09-.113a15.2,15.2,0,0,0,3.333-8.133l.015-.142Z" transform="translate(3040.019 -4340.723)" fill="#c69d16" stroke="#c69d16" stroke-width="0.3"/>
    </g>
  </g>
</svg>
