<svg xmlns="http://www.w3.org/2000/svg" width="160" height="160" viewBox="0 0 160 160">
  <g id="Group_2371" data-name="Group 2371" transform="translate(-401 -148)">
    <rect id="Rectangle_18863" data-name="Rectangle 18863" width="160" height="160" transform="translate(401 148)" fill="#08648d" opacity="0"/>
    <g id="Group_2330" data-name="Group 2330" transform="translate(4153.991 -5654.512)">
      <path id="Path_1111" data-name="Path 1111" d="M-3643.217,5945.168a15.307,15.307,0,0,1-12.151-6.124c-.12-.155-.249-.305-.393-.469l-.187-.216a1.067,1.067,0,0,0-.814-.376,1.068,1.068,0,0,0-.349.058,18.729,18.729,0,0,1-6.111,1.076,14.562,14.562,0,0,1-12.21-6.4,14.984,14.984,0,0,1-2.6-10.534c.338-3.09,1.262-4.833,5.2-9.811a1.069,1.069,0,0,0,.086-1.2,15.136,15.136,0,0,1-2.188-9.272,15.22,15.22,0,0,1,12.044-13.585,3.248,3.248,0,0,0,2.06-1.552c2.9-5.891,7.52-8.911,13.741-8.979h.209c6.039,0,10.593,2.864,13.536,8.514.076.146.158.29.248.442l.109.189a1.069,1.069,0,0,0,.928.541,1.064,1.064,0,0,0,.191-.017,20.777,20.777,0,0,1,3.69-.349,14.265,14.265,0,0,1,11.784,5.871c3.764,4.875,4.25,10.392,1.443,16.4a1.068,1.068,0,0,0,.18,1.173c.224.246.455.489.687.733.475.5.967,1.023,1.4,1.554a15.1,15.1,0,0,1,1.089,17.461,15.138,15.138,0,0,1-12.8,7.147,14.7,14.7,0,0,1-3.211-.355,4.339,4.339,0,0,0-.913-.118,2.387,2.387,0,0,0-2.061,1.234A14.948,14.948,0,0,1-3643.217,5945.168Zm-9.646-20.945a1.072,1.072,0,0,0-.269.035,1.066,1.066,0,0,0-.654.5c-2.613,4.471-1.387,10.761,2.79,14.322a11.982,11.982,0,0,0,7.765,2.867,11.8,11.8,0,0,0,7.581-2.755,11.814,11.814,0,0,0,2.647-15.055,1.066,1.066,0,0,0-.685-.5,1.08,1.08,0,0,0-.236-.027,1.066,1.066,0,0,0-.6.183,16.581,16.581,0,0,1-9.29,3.132,16.732,16.732,0,0,1-8.51-2.547A1.067,1.067,0,0,0-3652.864,5924.224Zm-17.051-9.424a1.068,1.068,0,0,0-.643.215c-4.469,3.369-5.683,10.163-2.708,15.146a11.939,11.939,0,0,0,10.181,5.832h0a10.749,10.749,0,0,0,4.58-1.007,1.069,1.069,0,0,0,.592-1.192,15.581,15.581,0,0,1,1.625-11.417,2.653,2.653,0,0,0-.254-2.6,2.694,2.694,0,0,0-2.167-1.528l-.087,0c-.3.015-.6.023-.89.023a15.629,15.629,0,0,1-9.587-3.26A1.068,1.068,0,0,0-3669.915,5914.8Zm52.475-1.676a1.064,1.064,0,0,0-.687.25,15.391,15.391,0,0,1-9.494,3.882,3.38,3.38,0,0,0-2.962,1.537,3.529,3.529,0,0,0,.242,3.469l.048.087a12.229,12.229,0,0,1,1.4,3.26c.319,1.614.5,3.267.686,5.019.082.757.165,1.528.262,2.317a1.067,1.067,0,0,0,.77.9,10.732,10.732,0,0,0,2.91.4,11.872,11.872,0,0,0,10.487-6.614,11.615,11.615,0,0,0-3.016-14.287A1.067,1.067,0,0,0-3617.439,5913.124Zm-26.446-13.234a11.873,11.873,0,0,0-11.805,11.9,11.923,11.923,0,0,0,11.79,11.9h.1a11.822,11.822,0,0,0,8.417-3.519,11.746,11.746,0,0,0,3.48-8.371,11.987,11.987,0,0,0-11.977-11.915Zm-16.106-8.591a11.588,11.588,0,0,0-3.908.664,11.92,11.92,0,0,0-7.7,13.41,11.93,11.93,0,0,0,11.423,9.614c.1,0,.2,0,.3,0a1.067,1.067,0,0,0,.764-.353,1.069,1.069,0,0,0,.272-.8c-.537-7.045,2.2-12.174,8.368-15.681a1.068,1.068,0,0,0,.406-1.448A11.327,11.327,0,0,0-3659.991,5891.3Zm31.783-.983c-4.462,0-8.612,2.429-10.325,6.044a1.068,1.068,0,0,0,.5,1.419c6.3,3.051,9.365,7.978,9.38,15.066a1.069,1.069,0,0,0,1.028,1.065c.108,0,.217.006.325.006,4.96,0,9.765-4.375,10.71-9.751a11.887,11.887,0,0,0-8.078-13.305A11.572,11.572,0,0,0-3628.208,5890.315Zm-18.841-9.344c-4.247,0-7.667,1.959-10.166,5.826a1.065,1.065,0,0,0-.1.961,1.069,1.069,0,0,0,.717.649,15.543,15.543,0,0,1,9.507,6.766,3.13,3.13,0,0,0,2.652,1.589h0a3.542,3.542,0,0,0,2.808-1.593,48.645,48.645,0,0,1,3.228-3.84c.392-.435.784-.87,1.17-1.309a3.217,3.217,0,0,1,.492-.4c.129-.093.261-.187.389-.29a1.068,1.068,0,0,0,.292-1.318c-2.3-4.573-5.9-6.942-10.7-7.041Z" transform="translate(-28.818 -29.013)" fill="#0e5879" stroke="#0e5879" stroke-width="0.5"/>
      <path id="Path_1112" data-name="Path 1112" d="M-3536,6032.784a13.4,13.4,0,0,1-8.137-2.754,13.392,13.392,0,0,1-4.882-7.633,14.132,14.132,0,0,1,2.014-10.66,1.068,1.068,0,0,0-.159-1.321l-2.034-2.005q-2.327-2.292-4.629-4.573-2.564-2.55-5.114-5.108l-2.249-2.252c-1.849-1.849-1.185-2.529-.746-2.981a1.3,1.3,0,0,1,.96-.493,3.493,3.493,0,0,1,2.1,1.256l2.43,2.43q5.251,5.25,10.492,10.51a3.437,3.437,0,0,1,.429.607c.082.134.16.261.239.374a1.068,1.068,0,0,0,.881.464,1.067,1.067,0,0,0,.548-.153,15.3,15.3,0,0,1,7.907-2.345,13.379,13.379,0,0,1,10.881,5.675,13.484,13.484,0,0,1-1.654,17.185A13.3,13.3,0,0,1-3536,6032.784Zm-.009-23.48a10.16,10.16,0,0,0-10.155,10.094,10.082,10.082,0,0,0,2.968,7.194,10.062,10.062,0,0,0,7.163,2.993,10.165,10.165,0,0,0,10.149-10.022,10.107,10.107,0,0,0-2.929-7.23,10.032,10.032,0,0,0-7.128-3.028Z" transform="translate(-82.734 -82.695)" fill="#0e5879" stroke="#0e5879" stroke-width="0.5"/>
      <path id="Path_1113" data-name="Path 1113" d="M-3559.344,5854.479a1.418,1.418,0,0,1-1-.508c-.329-.335-1.1-1.122.573-2.8l12.363-12.373c.219-.219.43-.445.654-.687l.315-.336a1.067,1.067,0,0,0,.132-1.293,13.963,13.963,0,0,1-1.971-10.553,13.477,13.477,0,0,1,4.9-7.655,13.346,13.346,0,0,1,8.123-2.747,13.3,13.3,0,0,1,9.205,3.694,13.48,13.48,0,0,1,1.739,17.273,13.433,13.433,0,0,1-10.921,5.708,14.843,14.843,0,0,1-7.651-2.25,1.061,1.061,0,0,0-.547-.152,1.069,1.069,0,0,0-.757.314s-3.817,3.828-5.061,5.072q-4.106,4.107-8.215,8.211A3.016,3.016,0,0,1-3559.344,5854.479Zm24.095-35.748a10.171,10.171,0,0,0-10.165,10.041,10.1,10.1,0,0,0,2.944,7.222,10.034,10.034,0,0,0,7.133,3.019h0a10.17,10.17,0,0,0,10.2-10.116,10.16,10.16,0,0,0-10-10.166Z" transform="translate(-83.481 -0.009)" fill="#0e5879" stroke="#0e5879" stroke-width="0.5"/>
      <path id="Path_1114" data-name="Path 1114" d="M-3709.279,5847.819a1.56,1.56,0,0,1-1.074-.514c-1.53-1.483-3.061-3.021-4.543-4.509l-.841-.844c-.394-.4-.776-.8-1.189-1.242-.207-.22-.421-.447-.648-.686a1.067,1.067,0,0,0-.775-.332,1.071,1.071,0,0,0-.558.157,14.72,14.72,0,0,1-7.707,2.381,13.511,13.511,0,0,1-5.417-1.186,12.887,12.887,0,0,1-6.438-6.054,13.364,13.364,0,0,1,3.368-16.433,13.276,13.276,0,0,1,8.46-3.045,13.353,13.353,0,0,1,8.324,2.921c5.4,4.244,6.371,10.679,2.745,18.117a1.068,1.068,0,0,0,.2,1.223l1.774,1.771c1.664,1.659,3.386,3.376,5.052,5.092a3.243,3.243,0,0,1,.846,1.288,1.352,1.352,0,0,1-.756,1.639A1.675,1.675,0,0,1-3709.279,5847.819Zm-17.317-29.1a10.173,10.173,0,0,0-10.167,10.034,10.105,10.105,0,0,0,2.939,7.224,10.04,10.04,0,0,0,7.131,3.025h.058a10.161,10.161,0,0,0,10.153-10.109,10.161,10.161,0,0,0-10-10.173Z" transform="translate(-0.018)" fill="#0e5879" stroke="#0e5879" stroke-width="0.5"/>
      <path id="Path_1115" data-name="Path 1115" d="M-3726.653,6044.214a13.247,13.247,0,0,1-9.429-3.938,13.266,13.266,0,0,1-3.908-9.458,13.374,13.374,0,0,1,13.3-13.305,13.38,13.38,0,0,1,13.4,13.332,13.256,13.256,0,0,1-3.917,9.442,13.251,13.251,0,0,1-9.434,3.928Zm.033-23.492a10.167,10.167,0,0,0-10.161,10.068,10.165,10.165,0,0,0,9.958,10.213h.153a10.178,10.178,0,0,0,10.17-10,10.12,10.12,0,0,0-2.916-7.245,10.025,10.025,0,0,0-7.115-3.041Z" transform="translate(0 -94.115)" fill="#0e5879" stroke="#0e5879" stroke-width="0.5"/>
      <path id="Path_1116" data-name="Path 1116" d="M-3732.894,5941.715q-2.351,0-4.7,0c-.958,0-2.108-.276-2.137-1.57a1.418,1.418,0,0,1,.372-1.066,2.488,2.488,0,0,1,1.781-.569q5.986-.005,11.973,0,5.754,0,11.508.005a2.333,2.333,0,0,1,1.671.516,1.48,1.48,0,0,1,.379,1.09c0,.394-.005,1.592-2.068,1.6q-2.473.007-4.945.006Z" transform="translate(-0.12 -57.303)" fill="#0e5879" stroke="#0e5879" stroke-width="0.5"/>
      <path id="Path_1117" data-name="Path 1117" d="M-3615.309,5833.172c-.976,0-1.611-.764-1.617-1.945-.026-4.83-.026-9.314,0-13.711a1.707,1.707,0,0,1,1.6-1.911c1.172.029,1.583,1,1.593,1.9.016,1.6.012,3.207.009,4.809l0,2.109,0,2.014c0,1.589.007,3.181-.007,4.771-.007.732-.219,1.961-1.575,1.966Z" transform="translate(-57.329 -0.043)" fill="#0e5879" stroke="#0e5879" stroke-width="0.5"/>
      <path id="Path_1118" data-name="Path 1118" d="M-3615.327,6052.087a1.7,1.7,0,0,1-1.6-1.9c-.031-4.867-.03-9.4,0-13.843a1.644,1.644,0,0,1,1.611-1.822c.975,0,1.563.682,1.577,1.825.02,1.635.015,3.3.011,4.915q0,1.067,0,2.134l0,2.038c0,1.583.008,3.165-.008,4.747-.012,1.166-.589,1.878-1.543,1.906Z" transform="translate(-57.328 -102.039)" fill="#0e5879" stroke="#0e5879" stroke-width="0.5"/>
      <path id="Path_1119" data-name="Path 1119" d="M-3511.372,5941.708l-3.948.006q-1.291,0-2.581-.011a2.132,2.132,0,0,1-1.529-.562,1.446,1.446,0,0,1-.4-1.062,1.675,1.675,0,0,1,1.879-1.572q3.324-.016,6.648-.015,3.278,0,6.556.014a2.1,2.1,0,0,1,1.511.538,1.474,1.474,0,0,1,.4,1.085c-.017.958-.735,1.561-1.875,1.574q-1.329.015-2.658.013Z" transform="translate(-102.576 -57.298)" fill="#0e5879" stroke="#0e5879" stroke-width="0.5"/>
      <path id="Path_1120" data-name="Path 1120" d="M-3687.83,6008.552a1.69,1.69,0,0,1-1.182-.53,1.427,1.427,0,0,1-.122-2.026c1.971-2.068,4.151-4.243,6.859-6.848a2.9,2.9,0,0,1,.741-.316l.31-.108.246.172a3.174,3.174,0,0,1,.923.808,2.257,2.257,0,0,1-.076,1.592c-2.3,2.577-4.772,4.953-6.882,6.936A1.152,1.152,0,0,1-3687.83,6008.552Z" transform="translate(-23.522 -85.361)" fill="#0e5879" stroke="#0e5879" stroke-width="0.5"/>
      <path id="Path_1121" data-name="Path 1121" d="M-3538.233,5941.713a1.662,1.662,0,0,1-1.6-1.566,1.573,1.573,0,0,1,.463-1.125,1.615,1.615,0,0,1,1.142-.5,1.546,1.546,0,0,1,1.563,1.556,1.624,1.624,0,0,1-.454,1.18,1.537,1.537,0,0,1-1.108.457Z" transform="translate(-93.256 -57.312)" fill="#0e5879" stroke="#0e5879" stroke-width="0.5"/>
      <path id="Path_1122" data-name="Path 1122" d="M-3669.709,5887.255a1.653,1.653,0,0,1-1.161-.5,1.568,1.568,0,0,1-.475-1.117,1.656,1.656,0,0,1,1.587-1.592h0a1.566,1.566,0,0,1,1.134.462,1.638,1.638,0,0,1,.476,1.172,1.523,1.523,0,0,1-1.544,1.57Z" transform="translate(-31.983 -31.933)" fill="#0e5879" stroke="#0e5879" stroke-width="0.5"/>
    </g>
  </g>
</svg>
