<svg id="圖層_1" data-name="圖層 1" xmlns="http://www.w3.org/2000/svg" viewBox="0 0 329.4 76"><defs><style>.cls-1{fill:#0e5879;}</style></defs><title>AI Platform Logo</title><path class="cls-1" d="M121.71,23.59q4.56,0,15.4.91a1,1,0,0,0,1.07-.84l.65-4.89a1,1,0,0,0-.83-1.1l-2-.29a121.61,121.61,0,0,0-15.44-1.25q-8.86,0-14,3.11a10,10,0,0,0-4.91,7.34H113.1C114,24.6,116.85,23.59,121.71,23.59Z"/><path class="cls-1" d="M136.82,38.65c-2.19-1.67-6-3.18-11.45-4.5a70.84,70.84,0,0,1-10.39-3,3.44,3.44,0,0,1-2.14-2.49H101.52a.13.13,0,0,0,0,.06,9.15,9.15,0,0,0,3.9,7.86q3.9,2.84,13.43,4.88c4,.87,6.66,1.67,8,2.42a3.43,3.43,0,0,1,2,3.11q0,5.46-8.71,5.46-5.58,0-15.91-1a1,1,0,0,0-1.08.8L102.34,57a1,1,0,0,0,.82,1.14l2,.29a102.19,102.19,0,0,0,15.69,1.49q8.63,0,14-3.42a11.19,11.19,0,0,0,5.34-10.06Q140.11,41.17,136.82,38.65Z"/><path class="cls-1" d="M194.59,17.58a1,1,0,0,0-.17-.25l-8.2,8.83,4.69,16.62A1,1,0,0,1,190,44H177.29a1,1,0,0,1-.95-1.25l5.11-18.11a1,1,0,0,1,1-.71h2.46a1,1,0,0,1,.47.16l6.72-7.24H173.6a1,1,0,0,0-.94.7l-12,40.28a1,1,0,0,0,.94,1.26h9.28a1,1,0,0,0,.94-.71l1.81-6.22a1,1,0,0,1,.94-.71h18.07a1,1,0,0,1,.94.71l1.81,6.22a1,1,0,0,0,.94.71h9.28a1,1,0,0,0,.94-1.26Z"/><path class="cls-1" d="M242.17,17.86a1,1,0,0,0-1-1h-9.37a1,1,0,0,0-1,1v8.72h11.33Z"/><path class="cls-1" d="M261.64,51.54H243.15a1,1,0,0,1-1-1V28.62H230.84V58.14a1,1,0,0,0,1,1h29.82a1,1,0,0,0,1-1V52.52A1,1,0,0,0,261.64,51.54Z"/><path class="cls-1" d="M327.61,57.86l-12-40.28a1,1,0,0,0-.27-.39L307.2,26,312,42.78A1,1,0,0,1,311,44H298.32a1,1,0,0,1-.94-1.25l5.11-18.11a1,1,0,0,1,.94-.71h2.46a1.06,1.06,0,0,1,.3.1l6.67-7.18H294.64a1,1,0,0,0-.94.7l-12,40.28a1,1,0,0,0,.94,1.26h9.28a1,1,0,0,0,.94-.71l1.81-6.22a1,1,0,0,1,.94-.71H313.7a1,1,0,0,1,.94.71l1.81,6.22a1,1,0,0,0,.94.71h9.28A1,1,0,0,0,327.61,57.86Z"/><path class="cls-1" d="M35.37,55.44l7.2,15.27a.36.36,0,0,0,.66,0l7.19-15.27a.37.37,0,0,0,0-.34l-7.2-12.22a.37.37,0,0,0-.63,0L35.38,55.1A.37.37,0,0,0,35.37,55.44Z"/><path class="cls-1" d="M39.25,2.69,1.8,73a.36.36,0,0,0,.32.53H13.3a.36.36,0,0,0,.33-.2L41.83,18a.33.33,0,0,0,0-.17V2.5h-2.3A.35.35,0,0,0,39.25,2.69Z"/><path class="cls-1" d="M46.55,2.69a.37.37,0,0,0-.33-.19h-2.3V17.85A.33.33,0,0,0,44,18L72.17,73.3a.34.34,0,0,0,.32.2H83.67A.36.36,0,0,0,84,73Z"/></svg>