<svg id="圖層_1" data-name="圖層 1" xmlns="http://www.w3.org/2000/svg" viewBox="0 0 86 76"><defs><style>.cls-1{fill:#0e5879;}</style></defs><title>AI Platform Logo</title><path class="cls-1" d="M35.47,55.44l7.2,15.27a.36.36,0,0,0,.66,0l7.2-15.27a.37.37,0,0,0,0-.34L43.32,42.88a.37.37,0,0,0-.64,0L35.49,55.1A.37.37,0,0,0,35.47,55.44Z"/><path class="cls-1" d="M39.35,2.69,1.9,73a.36.36,0,0,0,.32.53H13.4a.35.35,0,0,0,.33-.2L41.94,18a.47.47,0,0,0,0-.17V2.5H39.67A.36.36,0,0,0,39.35,2.69Z"/><path class="cls-1" d="M46.65,2.69a.36.36,0,0,0-.32-.19H44V17.85a.47.47,0,0,0,0,.17L72.27,73.3a.35.35,0,0,0,.33.2H83.78A.36.36,0,0,0,84.1,73Z"/></svg>