<svg xmlns="http://www.w3.org/2000/svg" width="40" height="40" viewBox="0 0 40 40">
  <g id="Group_2387" data-name="Group 2387" transform="translate(-321 -22)">
    <rect id="Rectangle_18856" data-name="Rectangle 18856" width="40" height="40" transform="translate(321 22)" fill="#08648d" opacity="0"/>
    <g id="Group_2241" data-name="Group 2241" transform="translate(275 -1559)">
      <g id="Rectangle_18726" data-name="Rectangle 18726" transform="translate(50 1590)" fill="none" stroke="#d9df90" stroke-width="1.3">
        <rect width="20" height="23" rx="2" stroke="none"/>
        <rect x="0.65" y="0.65" width="18.7" height="21.7" rx="1.35" fill="none"/>
      </g>
      <path id="Path_1029" data-name="Path 1029" d="M0,0H6.263" transform="translate(70 1601.322)" fill="#d9df90" stroke="#d9df90" stroke-linecap="round" stroke-width="1.2"/>
      <g id="Polygon_64" data-name="Polygon 64" transform="translate(82 1596) rotate(90)" fill="none">
        <path d="M4.763.8A1,1,0,0,1,6.237.8l3.227,3.52A1,1,0,0,1,8.727,6H2.273a1,1,0,0,1-.737-1.676Z" stroke="none"/>
        <path d="M 5.5 1.4798903465271 L 5.5 1.479900360107422 L 2.273240089416504 4.999990463256836 C 2.273238182067871 4.999991893768311 2.273237228393555 4.999993324279785 2.273235321044922 4.999995231628418 C 2.273236274719238 4.999997138977051 2.273237228393555 4.999998569488525 2.273238182067871 5.000000476837158 C 2.273239135742188 5.000000476837158 2.273239135742188 5.000000476837158 2.273240089416504 5.000000476837158 L 8.726762771606445 5.000000476837158 C 8.726762771606445 4.999998569488525 8.726764678955078 4.999996662139893 8.726770401000977 5.000000476837158 L 5.50124979019165 1.480010509490967 C 5.501130104064941 1.479970455169678 5.500659942626953 1.4798903465271 5.5 1.4798903465271 M 5.5 0.4798927307128906 C 5.769492626190186 0.4798927307128906 6.038984775543213 0.5879855155944824 6.237150192260742 0.8041706085205078 L 9.463919639587402 4.324280738830566 C 10.05187034606934 4.965680599212646 9.596870422363281 6.000000476837158 8.726770401000977 6.000000476837158 L 2.273240089416504 6.000000476837158 C 1.403129577636719 6.000000476837158 0.9481296539306641 4.965680599212646 1.536080360412598 4.324270248413086 L 4.762849807739258 0.8041706085205078 C 4.961015224456787 0.5879855155944824 5.230507373809814 0.4798927307128906 5.5 0.4798927307128906 Z" stroke="none" fill="#d9df90"/>
      </g>
    </g>
  </g>
</svg>
