<svg xmlns="http://www.w3.org/2000/svg" width="40" height="40" viewBox="0 0 40 40">
  <g id="Group_2402" data-name="Group 2402" transform="translate(5679 -1238)">
    <rect id="Rectangle_18869" data-name="Rectangle 18869" width="40" height="40" transform="translate(-5679 1238)" fill="#08648d" opacity="0"/>
    <g id="Group_2401" data-name="Group 2401" transform="translate(-5932.709 -3324.958)">
      <path id="Path_1086" data-name="Path 1086" d="M313.535,4627.655q-1.936,0-3.871-.007c-.751,0-.946-.2-.949-.952-.01-2.583-.01-5.2,0-7.775,0-.747.2-.943.954-.949.519-.005,1.038-.006,1.558-.006h1.2l1.208,0,1.156,0h1.152c.5,0,.993,0,1.489.006.755.007.951.2.954.951.01,2.583.01,5.2,0,7.774,0,.752-.2.947-.952.951Q315.487,4627.655,313.535,4627.655Zm-3.37-1.435h6.809v-6.806h-6.809Z" transform="translate(-39.699 -39.706)" fill="#dd8282"/>
      <g id="Group_2309" data-name="Group 2309" transform="translate(260.709 4569.958)">
        <path id="Path_1087" data-name="Path 1087" d="M370.749,4683.975q-1.546,0-3.092-.01c-.4,0-.876-.122-.887-.675a.6.6,0,0,1,.156-.454,1.075,1.075,0,0,1,.765-.247c.652,0,1.3-.007,1.963-.007l2.989,0h.692v-2.2c0-1.132,0-2.23,0-3.328,0-1.036.5-1.04.685-1.041h0c.18,0,.688.006.692,1.021.006,1.626.01,3.773,0,5.953,0,.766-.2.965-.934.969Q372.264,4683.976,370.749,4683.975Z" transform="translate(-348.431 -4657.684)" fill="#dd8282"/>
        <path id="Path_1088" data-name="Path 1088" d="M264.415,4683.969q-1.355,0-2.71-.006c-.8,0-.986-.19-.99-1-.008-1.873-.008-3.82,0-5.952,0-.454.121-.994.678-.994h.028c.165,0,.667.019.672.983.006,1.12,0,2.239,0,3.388v2.191h3.595c.639,0,1.273,0,1.906,0,1.046,0,1.058.491,1.062.676a.548.548,0,0,1-.142.436,1.353,1.353,0,0,1-.945.27Q265.994,4683.968,264.415,4683.969Z" transform="translate(-260.709 -4657.68)" fill="#dd8282"/>
        <path id="Path_1089" data-name="Path 1089" d="M374.024,4577.916c-.169,0-.683,0-.687-1.029,0-1.1,0-2.2,0-3.333v-2.2H369.7c-.641,0-1.275,0-1.909,0a1.245,1.245,0,0,1-.868-.256.587.587,0,0,1-.15-.44c0-.186.007-.68,1.044-.682q1.524-.005,3.049-.005,1.409,0,2.819.006c.856,0,1.03.178,1.033,1.04.007,1.843.007,3.761,0,5.868,0,1.033-.519,1.036-.689,1.036Z" transform="translate(-348.433 -4569.964)" fill="#dd8282"/>
        <path id="Path_1090" data-name="Path 1090" d="M261.4,4577.909c-.169,0-.685,0-.688-1.03-.006-1.875-.01-3.895,0-5.953,0-.758.2-.956.939-.96q1.453-.007,2.907-.008,1.566,0,3.131.007c.634,0,.959.231.966.679a.58.58,0,0,1-.15.439,1.224,1.224,0,0,1-.862.261c-.631,0-1.262,0-1.9,0l-3.65,0v2.2c0,1.134,0,2.232,0,3.33,0,1.033-.52,1.034-.69,1.034Z" transform="translate(-260.709 -4569.958)" fill="#dd8282"/>
      </g>
    </g>
  </g>
</svg>
