<svg xmlns="http://www.w3.org/2000/svg" width="40" height="40" viewBox="0 0 40 40">
  <g id="Group_2399" data-name="Group 2399" transform="translate(5549 -1237)">
    <rect id="Rectangle_18867" data-name="Rectangle 18867" width="40" height="40" transform="translate(-5549 1237)" fill="#08648d" opacity="0"/>
    <g id="Group_2393" data-name="Group 2393" transform="translate(-5543.33 1243)">
      <path id="Path_1023" data-name="Path 1023" d="M-4176.437,3992.19a.75.75,0,0,1-.821-.519,1.744,1.744,0,0,1-.046-.494q0-7.6,0-15.191v-4.6q0-3.334,0-6.668a.786.786,0,0,1,.753-.845.779.779,0,0,1,.308.065.761.761,0,0,1,.48.683,2.094,2.094,0,0,1,0,.25c0,.036,0,.073,0,.11v25.661h25.853a.973.973,0,0,1,.718.252.739.739,0,0,1,.2.552.757.757,0,0,1-.688.736c-.042,0-.083,0-.125,0h-26.631Z" transform="translate(4177.308 -3963.876)" fill="#bc6161"/>
      <path id="Path_1024" data-name="Path 1024" d="M-4141.512,4024.72a.862.862,0,0,1-.125-.01.75.75,0,0,1-.6-.481.81.81,0,0,1,.156-.806c.3-.363.624-.726.935-1.075l.393-.445,1.387-1.58q3.844-4.38,7.688-8.759a1.019,1.019,0,0,1,.714-.434,1.061,1.061,0,0,1,.694.371l4.346,4.2c.052.05.1.1.166.156l.285.263,4.938-5.15c.1-.1.2-.208.3-.308a.843.843,0,0,1,.585-.255.746.746,0,0,1,.525.22.761.761,0,0,1,0,1.106c-.978,1.028-1.977,2.069-2.943,3.077l-1.527,1.593q-.609.637-1.219,1.271a.9.9,0,0,1-.634.326.934.934,0,0,1-.634-.31l-2.789-2.694-1.533-1.482c-.065-.063-.132-.126-.211-.2l-.356-.336-.17.249c-.028.042-.054.082-.078.12a1.278,1.278,0,0,1-.118.168q-1.849,2.109-3.7,4.217-2.888,3.292-5.774,6.583A.919.919,0,0,1-4141.512,4024.72Z" transform="translate(4146.792 -4004.419)" fill="#bc6161"/>
    </g>
  </g>
</svg>
