<svg xmlns="http://www.w3.org/2000/svg" width="40" height="40" viewBox="0 0 40 40">
  <g id="Group_2441" data-name="Group 2441" transform="translate(5420 -1354)">
    <rect id="Rectangle_18880" data-name="Rectangle 18880" width="40" height="40" transform="translate(-5420 1354)" fill="#08648d" opacity="0"/>
    <g id="Group_2267" data-name="Group 2267" transform="translate(-52.443 -2057.757)">
      <path id="Path_1039" data-name="Path 1039" d="M-5361.009,3569.467h2.1v7.1a1.1,1.1,0,0,0,1.289,1.247q10.061-.207,20.117,0a1.1,1.1,0,0,0,1.293-1.247v-7.085h2.1q0,3.568,0,7.137a3.3,3.3,0,0,1-3.3,3.3q-10.151.006-20.3,0a3.3,3.3,0,0,1-3.3-3.3q0-3.428,0-6.856Z" transform="translate(0 -137.159)" fill="#08648d"/>
      <path id="Path_1040" data-name="Path 1040" d="M-5286.941,3431.226h-2.1v-13.308l-3.925,3.948-1.489-1.477,6.44-6.437,6.476,6.472-1.423,1.424-3.976-3.977Z" transform="translate(-59.558 4)" fill="#08648d"/>
    </g>
  </g>
</svg>
