<svg id="Component_37_1" data-name="Component 37 – 1" xmlns="http://www.w3.org/2000/svg" width="40" height="40" viewBox="0 0 40 40">
  <rect id="Rectangle_18886" data-name="Rectangle 18886" width="40" height="40" fill="#08648d" opacity="0"/>
  <g id="Group_2435" data-name="Group 2435" transform="translate(5462.202 -1399.434)">
    <path id="Path_991" data-name="Path 991" d="M-2562.529,3805.462v17.695h17.714v-.346q0-4.6,0-9.2a.98.98,0,0,1,1.309-1.012.96.96,0,0,1,.656.85,2.487,2.487,0,0,1,0,.277v9.382a1.973,1.973,0,0,1-2.031,2.041h-17.6a1.971,1.971,0,0,1-2.034-2.037q0-8.8,0-17.594a1.971,1.971,0,0,1,2.011-2.03q4.769,0,9.536,0a.986.986,0,0,1,1,1.321.985.985,0,0,1-.954.645c-.831.006-1.66,0-2.491,0h-7.128Z" transform="translate(-2890.494 -2394.326)" fill="#effbfd"/>
    <path id="Path_992" data-name="Path 992" d="M-2475.808,3775.009a3.512,3.512,0,0,1-1.062,2.51q-4.738,4.743-9.489,9.475a1.424,1.424,0,0,1-.655.36c-1.427.325-2.86.624-4.291.93a1.011,1.011,0,0,1-1.211-1.244c.311-1.42.6-2.844.924-4.26a1.434,1.434,0,0,1,.359-.655q3.868-3.9,7.757-7.772c.594-.594,1.183-1.195,1.784-1.782a3.489,3.489,0,0,1,3.816-.716A3.423,3.423,0,0,1-2475.808,3775.009Zm-14.46,11.024c.8-.172,1.562-.325,2.315-.506a1.205,1.205,0,0,0,.55-.285q3.283-3.258,6.548-6.535c.069-.071.133-.145.152-.165l-2.063-2.088a.527.527,0,0,0-.051.042q-3.369,3.368-6.735,6.739a.733.733,0,0,0-.187.339C-2489.919,3784.373-2490.085,3785.174-2490.268,3786.033Zm11.035-9c.343-.333.705-.665,1.047-1.017a1.458,1.458,0,0,0,.061-1.959,1.466,1.466,0,0,0-1.947-.245,12.587,12.587,0,0,0-1.153,1.225Z" transform="translate(-2953.597 -2366.337)" fill="#effbfd"/>
  </g>
</svg>
