<svg id="Component_34_1" data-name="Component 34 – 1" xmlns="http://www.w3.org/2000/svg" width="40" height="40" viewBox="0 0 40 40">
  <rect id="Rectangle_18856" data-name="Rectangle 18856" width="40" height="40" fill="#08648d" opacity="0"/>
  <path id="Path_1014" data-name="Path 1014" d="M-4428.345,3067.8c.1-.054.188-.1.272-.146.718-.417,1.435-.838,2.156-1.251.305-.175.61-.068.672.231a.438.438,0,0,1-.27.488q-1.15.665-2.3,1.333l-.709.415a.5.5,0,0,1-.541-.008q-3.33-1.931-6.665-3.849a.551.551,0,0,1-.3-.532q.014-3.344.012-6.69a.636.636,0,0,1,.363-.612c2.049-1.18,4.089-2.376,6.14-3.553a.525.525,0,0,0,.3-.535c-.006-2.056.01-4.112.008-6.169a.69.69,0,0,1,.389-.681q3.2-1.835,6.37-3.7a.781.781,0,0,1,.9,0q3.192,1.867,6.4,3.7a.691.691,0,0,1,.393.68c-.017,2.047-.01,4.094-.032,6.141a.58.58,0,0,0,.349.592c2.023,1.153,4.033,2.328,6.056,3.479a.751.751,0,0,1,.435.765c-.026.8-.008,1.609-.015,2.413a.422.422,0,0,1-.41.458.42.42,0,0,1-.411-.453c0-.091,0-.183,0-.274v-1.673c-.092.044-.165.073-.232.112q-2.76,1.6-5.518,3.2a.343.343,0,0,0-.219.333c0,1.873,0,3.747,0,5.62,0,.045,0,.089.011.174.105-.057.19-.1.273-.148q2.724-1.582,5.449-3.162a.4.4,0,0,0,.237-.408c-.013-.585,0-1.17,0-1.755,0-.32.161-.508.414-.5s.408.2.408.517c0,.7-.006,1.408,0,2.111a.579.579,0,0,1-.317.557q-3.3,1.906-6.583,3.825a.548.548,0,0,1-.613,0c-2.092-1.215-4.188-2.42-6.281-3.635a.394.394,0,0,0-.469-.006c-.45.279-.913.537-1.373.8-.283.163-.516.128-.647-.089s-.052-.455.243-.626c.472-.277.951-.544,1.417-.832a.385.385,0,0,0,.163-.269c.017-1.892.022-3.784.029-5.676,0-.035-.007-.07-.014-.133a2.032,2.032,0,0,0-.2.088q-2.782,1.616-5.562,3.239a.379.379,0,0,0-.179.259c-.014,1.9-.016,3.8-.02,5.7A.885.885,0,0,0-4428.345,3067.8Zm6.791-10.91c.069-.034.1-.048.131-.065,1.887-1.1,3.775-2.19,5.655-3.3a.44.44,0,0,0,.16-.328c.015-1.846.019-3.692.024-5.538,0-.066-.015-.132-.025-.223l-.36.207c-.916.532-1.83,1.066-2.748,1.6-.319.184-.639.066-.687-.249-.036-.236.107-.368.293-.476q1.436-.829,2.866-1.665c.073-.042.142-.091.219-.14a.51.51,0,0,0-.058-.055q-2.881-1.664-5.76-3.332a.314.314,0,0,0-.37.035q-2.663,1.55-5.328,3.1c-.132.077-.264.157-.4.239a.524.524,0,0,0,.057.052q2.892,1.672,5.789,3.339a.355.355,0,0,0,.29-.009c.3-.155.586-.337.881-.5a.419.419,0,0,1,.616.124.417.417,0,0,1-.194.58c-.28.171-.563.342-.854.494a.33.33,0,0,0-.2.344c.008.832,0,1.664,0,2.495C-4421.554,3054.691-4421.554,3055.77-4421.554,3056.89Zm-1.262.744c-.066-.044-.107-.075-.152-.1q-2.831-1.637-5.661-3.276a.321.321,0,0,0-.372.007c-.9.528-1.8,1.049-2.695,1.571l-3.064,1.781c.053.038.087.066.126.088q2.855,1.649,5.708,3.3a.313.313,0,0,0,.37-.034l3.454-2.008Zm13.613,0a1.254,1.254,0,0,0-.107-.082q-2.855-1.65-5.715-3.291a.432.432,0,0,0-.362.019q-2.8,1.609-5.588,3.239a1.49,1.49,0,0,0-.145.106.739.739,0,0,0,.081.065q2.867,1.657,5.732,3.316a.314.314,0,0,0,.37-.036q1.915-1.115,3.832-2.228Zm-20.011,10.167a.852.852,0,0,0,.019-.122c.006-1.9.014-3.8.008-5.7a.406.406,0,0,0-.188-.282q-2.79-1.626-5.589-3.234c-.066-.038-.137-.065-.241-.114,0,1.983,0,3.918.007,5.853a.379.379,0,0,0,.182.255q2.791,1.623,5.59,3.233C-4429.366,3067.731-4429.3,3067.759-4429.214,3067.8Zm6.831-10.9c0-.129,0-.21,0-.291,0-1.819,0-3.637.013-5.456a.4.4,0,0,0-.233-.406q-2.758-1.579-5.5-3.173c-.076-.043-.155-.079-.259-.132-.007.1-.016.173-.016.244-.007,1.846-.009,3.692-.021,5.538a.343.343,0,0,0,.209.338q2.779,1.6,5.551,3.2C-4422.574,3056.8-4422.5,3056.839-4422.383,3056.9Zm.832,1.452c-.009.086-.016.122-.016.158-.008,1.882-.014,3.764-.028,5.646a.322.322,0,0,0,.2.317q2.813,1.617,5.62,3.242c.053.03.108.054.189.094.005-.082.011-.134.011-.185,0-1.873,0-3.745.014-5.618a.339.339,0,0,0-.221-.331q-2.4-1.378-4.791-2.762Z" transform="translate(4442.032 -3036.35)" fill="#fff" stroke="#fff" stroke-width="0.2"/>
</svg>
